<svg width="71" height="71" viewBox="0 0 71 71" fill="none" xmlns="http://www.w3.org/2000/svg">
<g clip-path="url(#clip0)">
<path d="M41.2242 70.9631L41.1695 62.8799C41.1695 56.3747 48.89 58.7364 47.7187 48.6144L45.5398 10.8093C45.4681 9.11541 43.4325 9.08394 43.4949 10.7785L43.1635 43.1501C42.9952 45.788 39.8662 45.3514 39.9657 42.5782L39.5636 10.7422C39.5636 8.84237 37.5861 9.22607 37.5677 10.8825L37.0281 43.355C36.965 45.4237 33.9049 45.2225 33.969 43.258L33.5106 10.6903C33.5106 9.22039 31.626 9.07548 31.5865 10.5156L31.0355 43.3998C30.8885 45.6459 27.8663 45.3437 28.0229 42.9181L27.6445 10.7829C27.6687 8.96856 25.8077 9.06355 25.7219 10.7829L23.2555 50.2004C23.1975 58.6895 29.7942 56.0066 29.9441 63.2617L29.9357 70.9998C5.86229 67.2796 -7.97855 39.6549 4.94179 17.568C18.7726 -6.07526 52.9894 -5.79931 66.384 18.0634C78.7561 40.1044 64.8705 67.137 41.2242 70.9631Z" fill="#DB7100"/>
</g>
<defs>
<clipPath id="clip0">
<rect width="71" height="71" fill="white"/>
</clipPath>
</defs>
</svg>
