<svg width="48" height="48" viewBox="0 0 48 48" fill="none" xmlns="http://www.w3.org/2000/svg">
<path d="M47 24.4898C47 36.9025 36.7221 47 24 47C11.2779 47 1 36.9025 1 24.4898C1 12.0771 11.2779 1.97959 24 1.97959C36.7221 1.97959 47 12.0771 47 24.4898Z" stroke="url(#paint0_linear)" stroke-width="2"/>
<mask id="mask0" mask-type="alpha" maskUnits="userSpaceOnUse" x="10" y="15" width="28" height="24">
<path d="M14.47 15.51L16.84 15.57C17.06 15.57 17.25 15.57 17.41 15.57L20.53 15.51C20.67 15.51 20.74 15.66 20.74 15.96C20.74 16.24 20.66 16.38 20.5 16.38H19.12C18.86 16.38 18.73 16.54 18.73 16.86V27.54C18.73 30.34 18.47 32.37 17.95 33.63C17.43 34.91 16.64 35.96 15.58 36.78C14.52 37.62 13.29 38.04 11.89 38.04C11.59 38.04 11.29 37.97 10.99 37.83C10.67 37.69 10.51 37.45 10.51 37.11C10.51 36.41 10.9 35.94 11.68 35.7C12.46 36.14 13.29 36.36 14.17 36.36C14.71 36.36 15.12 36.09 15.4 35.55C15.92 34.45 16.18 31.85 16.18 27.75V18.84C16.18 17.24 15.98 16.44 15.58 16.44H14.5C14.26 16.44 14.14 16.29 14.14 15.99C14.14 15.67 14.25 15.51 14.47 15.51ZM25.9403 30L22.7303 30.06C22.5903 30.06 22.5203 29.91 22.5203 29.61C22.5203 29.31 22.5703 29.16 22.6703 29.16H24.1403C24.3803 29.16 24.5003 28.99 24.5003 28.65V18.81C24.5003 17.23 24.2803 16.44 23.8403 16.44H22.7903C22.5703 16.44 22.4603 16.29 22.4603 15.99C22.4603 15.67 22.5503 15.51 22.7303 15.51C23.7703 15.55 24.8203 15.57 25.8803 15.57H28.7903C31.3903 15.57 33.4903 16.28 35.0903 17.7C36.7103 19.1 37.5203 20.85 37.5203 22.95C37.5203 25.05 36.7303 26.75 35.1503 28.05C33.5903 29.35 31.6103 30 29.2103 30H25.9403ZM27.7703 16.47C27.2903 16.47 27.0503 16.76 27.0503 17.34V26.7C27.0503 28.26 27.2603 29.04 27.6803 29.04H28.7603C30.6003 29.04 32.0103 28.52 32.9903 27.48C33.9903 26.44 34.4903 24.99 34.4903 23.13C34.4903 21.25 33.9503 19.69 32.8703 18.45C31.7903 17.21 30.1203 16.55 27.8603 16.47C27.8203 16.47 27.7903 16.47 27.7703 16.47Z" fill="white"/>
</mask>
<g mask="url(#mask0)">
<rect x="9" y="10.7755" width="30" height="28.4082" fill="url(#paint1_linear)"/>
</g>
<defs>
<linearGradient id="paint0_linear" x1="5" y1="-1.95918" x2="56.1498" y2="40.2148" gradientUnits="userSpaceOnUse">
<stop stop-color="#AC3B61"/>
<stop offset="0.9999" stop-color="#123C69"/>
<stop offset="1" stop-color="#123C69" stop-opacity="0"/>
<stop offset="1" stop-color="#123C69"/>
</linearGradient>
<linearGradient id="paint1_linear" x1="1.2" y1="7.43338" x2="28.0976" y2="55.9825" gradientUnits="userSpaceOnUse">
<stop stop-color="#123C69"/>
<stop offset="1" stop-color="#AC3B61"/>
</linearGradient>
</defs>
</svg>
