<svg width="60" height="60" viewBox="0 0 60 60" fill="none" xmlns="http://www.w3.org/2000/svg">
<circle cx="30" cy="30" r="28.5" stroke="url(#paint0_linear)" stroke-width="3"/>
<mask id="mask0" mask-type="alpha" maskUnits="userSpaceOnUse" x="15" y="12" width="28" height="37">
<path d="M20.536 19.22C20.176 19.22 19.744 18.932 19.24 18.356C18.76 17.756 18.52 17.324 18.52 17.06C18.52 16.772 18.724 16.268 19.132 15.548C19.54 14.828 19.96 14.468 20.392 14.468C20.824 14.468 21.304 14.696 21.832 15.152C22.36 15.584 22.624 16.088 22.624 16.664C22.624 17.24 22.372 17.816 21.868 18.392C21.364 18.944 20.92 19.22 20.536 19.22ZM15.82 47.66C15.964 47.468 16.264 47.096 16.72 46.544C17.176 45.992 17.524 45.488 17.764 45.032C18.028 44.6 18.292 44.048 18.556 43.376C18.82 42.704 18.976 41.648 19.024 40.208C19.168 37.088 19.24 32.936 19.24 27.752C19.24 26.168 19.108 25.16 18.844 24.728C18.604 24.296 18.052 24.08 17.188 24.08H16.648L16.576 22.892C18.448 22.724 19.792 22.544 20.608 22.352C21.448 22.136 21.904 22.028 21.976 22.028C22.384 22.028 22.588 22.22 22.588 22.604V28.148C22.588 33.26 22.468 36.62 22.228 38.228C22.012 39.812 21.856 40.808 21.76 41.216C21.664 41.648 21.472 42.224 21.184 42.944C20.896 43.664 20.644 44.156 20.428 44.42C20.212 44.684 19.852 45.092 19.348 45.644C18.868 46.196 18.436 46.628 18.052 46.94C17.692 47.252 17.152 47.696 16.432 48.272L15.82 47.66ZM37.9223 22.496L37.8503 17.096C37.8503 16.328 37.8383 15.8 37.8143 15.512C37.8143 15.2 37.6943 14.936 37.4543 14.72C37.2383 14.504 37.0103 14.396 36.7703 14.396C36.5543 14.372 36.0743 14.348 35.3303 14.324L35.2583 13.136C37.0823 12.968 38.4263 12.788 39.2903 12.596C40.1543 12.38 40.6223 12.272 40.6943 12.272C41.1023 12.272 41.3063 12.464 41.3063 12.848C41.3063 18.008 41.2583 22.964 41.1623 27.716C41.0903 32.444 41.0543 35.228 41.0543 36.068C41.0543 36.884 41.3543 37.748 41.9543 38.66C42.5783 39.572 42.8903 40.052 42.8903 40.1C42.8903 40.148 42.7823 40.22 42.5663 40.316C42.3743 40.388 42.1223 40.472 41.8103 40.568C41.4983 40.664 41.0903 40.82 40.5863 41.036C40.1063 41.252 39.7703 41.36 39.5783 41.36C39.3863 41.36 39.1943 41.168 39.0023 40.784C38.8103 40.376 38.6183 39.932 38.4263 39.452C38.2583 38.972 38.1143 38.672 37.9943 38.552C36.1943 40.544 34.5983 41.54 33.2063 41.54C32.0063 41.54 30.6143 40.88 29.0303 39.56C28.2143 38.912 27.5303 37.952 26.9783 36.68C26.4263 35.408 26.1503 34.028 26.1503 32.54C26.1503 31.052 26.2223 29.816 26.3663 28.832C26.5103 27.848 26.6663 27.092 26.8343 26.564C27.0023 26.012 27.2543 25.52 27.5903 25.088C27.9503 24.656 28.2143 24.368 28.3823 24.224C28.5743 24.08 28.8743 23.888 29.2823 23.648L30.5063 22.928C31.5383 22.304 32.6663 21.992 33.8903 21.992C35.1383 21.992 36.4823 22.16 37.9223 22.496ZM29.3183 30.524C29.3183 33.284 29.7863 35.3 30.7223 36.572C31.6823 37.82 32.8463 38.444 34.2143 38.444C35.5823 38.444 36.8303 37.904 37.9583 36.824C37.9583 32.624 37.9343 29.648 37.8863 27.896C37.8623 26.12 37.8503 25.184 37.8503 25.088C36.7223 24.416 35.3063 24.08 33.6023 24.08C32.8823 24.08 32.2943 24.152 31.8383 24.296C31.4063 24.416 30.9743 24.704 30.5423 25.16C29.7263 25.976 29.3183 27.764 29.3183 30.524Z" fill="black"/>
</mask>
<g mask="url(#mask0)">
<rect x="11" y="11" width="39" height="39" fill="url(#paint1_linear)"/>
</g>
<defs>
<linearGradient id="paint0_linear" x1="30" y1="0" x2="30" y2="60" gradientUnits="userSpaceOnUse">
<stop stop-color="#123C69"/>
<stop offset="1" stop-color="#AC3B61"/>
</linearGradient>
<linearGradient id="paint1_linear" x1="30.5" y1="11" x2="30.5" y2="50" gradientUnits="userSpaceOnUse">
<stop stop-color="#123C69"/>
<stop offset="1" stop-color="#AC3B61"/>
</linearGradient>
</defs>
</svg>
